<?xml version="1.0" encoding="UTF-8" standalone="no"?>
<!-- Created with Inkscape (http://www.inkscape.org/) -->

<svg
   xmlns:dc="http://purl.org/dc/elements/1.1/"
   xmlns:cc="http://creativecommons.org/ns#"
   xmlns:rdf="http://www.w3.org/1999/02/22-rdf-syntax-ns#"
   xmlns:svg="http://www.w3.org/2000/svg"
   xmlns="http://www.w3.org/2000/svg"
   xmlns:xlink="http://www.w3.org/1999/xlink"
   xmlns:sodipodi="http://sodipodi.sourceforge.net/DTD/sodipodi-0.dtd"
   xmlns:inkscape="http://www.inkscape.org/namespaces/inkscape"
   width="12cm"
   height="3.5cm"
   viewBox="0 0 425.19685 124.01575"
   id="svg2"
   version="1.1"
   inkscape:version="0.91 r13725"
   sodipodi:docname="interseccion_triangulos.svg">
  <defs
     id="defs4">
    <marker
       inkscape:isstock="true"
       style="overflow:visible"
       id="marker6660"
       refX="0"
       refY="0"
       orient="auto"
       inkscape:stockid="DotM">
      <path
         inkscape:connector-curvature="0"
         transform="matrix(0.4,0,0,0.4,2.96,0.4)"
         style="fill:#000000;fill-opacity:1;fill-rule:evenodd;stroke:#000000;stroke-width:1pt;stroke-opacity:1"
         d="m -2.5,-1 c 0,2.76 -2.24,5 -5,5 -2.76,0 -5,-2.24 -5,-5 0,-2.76 2.24,-5 5,-5 2.76,0 5,2.24 5,5 z"
         id="path6662" />
    </marker>
    <marker
       inkscape:isstock="true"
       style="overflow:visible"
       id="marker6560"
       refX="0"
       refY="0"
       orient="auto"
       inkscape:stockid="DotM">
      <path
         inkscape:connector-curvature="0"
         transform="matrix(0.4,0,0,0.4,2.96,0.4)"
         style="fill:#000000;fill-opacity:1;fill-rule:evenodd;stroke:#000000;stroke-width:1pt;stroke-opacity:1"
         d="m -2.5,-1 c 0,2.76 -2.24,5 -5,5 -2.76,0 -5,-2.24 -5,-5 0,-2.76 2.24,-5 5,-5 2.76,0 5,2.24 5,5 z"
         id="path6562" />
    </marker>
    <marker
       inkscape:isstock="true"
       style="overflow:visible"
       id="marker6466"
       refX="0"
       refY="0"
       orient="auto"
       inkscape:stockid="DotM">
      <path
         inkscape:connector-curvature="0"
         transform="matrix(0.4,0,0,0.4,2.96,0.4)"
         style="fill:#000000;fill-opacity:1;fill-rule:evenodd;stroke:#000000;stroke-width:1pt;stroke-opacity:1"
         d="m -2.5,-1 c 0,2.76 -2.24,5 -5,5 -2.76,0 -5,-2.24 -5,-5 0,-2.76 2.24,-5 5,-5 2.76,0 5,2.24 5,5 z"
         id="path6468" />
    </marker>
    <marker
       inkscape:stockid="DotM"
       orient="auto"
       refY="0"
       refX="0"
       id="marker6278"
       style="overflow:visible"
       inkscape:isstock="true">
      <path
         id="path6280"
         d="m -2.5,-1 c 0,2.76 -2.24,5 -5,5 -2.76,0 -5,-2.24 -5,-5 0,-2.76 2.24,-5 5,-5 2.76,0 5,2.24 5,5 z"
         style="fill:#000000;fill-opacity:1;fill-rule:evenodd;stroke:#000000;stroke-width:1pt;stroke-opacity:1"
         transform="matrix(0.4,0,0,0.4,2.96,0.4)"
         inkscape:connector-curvature="0" />
    </marker>
    <marker
       inkscape:stockid="DotM"
       orient="auto"
       refY="0"
       refX="0"
       id="marker6202"
       style="overflow:visible"
       inkscape:isstock="true">
      <path
         id="path6204"
         d="m -2.5,-1 c 0,2.76 -2.24,5 -5,5 -2.76,0 -5,-2.24 -5,-5 0,-2.76 2.24,-5 5,-5 2.76,0 5,2.24 5,5 z"
         style="fill:#000000;fill-opacity:1;fill-rule:evenodd;stroke:#000000;stroke-width:1pt;stroke-opacity:1"
         transform="matrix(0.4,0,0,0.4,2.96,0.4)"
         inkscape:connector-curvature="0" />
    </marker>
    <marker
       inkscape:isstock="true"
       style="overflow:visible"
       id="marker6050"
       refX="0"
       refY="0"
       orient="auto"
       inkscape:stockid="DotM">
      <path
         inkscape:connector-curvature="0"
         transform="matrix(0.4,0,0,0.4,2.96,0.4)"
         style="fill:#000000;fill-opacity:1;fill-rule:evenodd;stroke:#000000;stroke-width:1pt;stroke-opacity:1"
         d="m -2.5,-1 c 0,2.76 -2.24,5 -5,5 -2.76,0 -5,-2.24 -5,-5 0,-2.76 2.24,-5 5,-5 2.76,0 5,2.24 5,5 z"
         id="path6052" />
    </marker>
    <marker
       inkscape:isstock="true"
       style="overflow:visible"
       id="marker6040"
       refX="0"
       refY="0"
       orient="auto"
       inkscape:stockid="DotM">
      <path
         inkscape:connector-curvature="0"
         transform="matrix(0.4,0,0,0.4,2.96,0.4)"
         style="fill:#000000;fill-opacity:1;fill-rule:evenodd;stroke:#000000;stroke-width:1pt;stroke-opacity:1"
         d="m -2.5,-1 c 0,2.76 -2.24,5 -5,5 -2.76,0 -5,-2.24 -5,-5 0,-2.76 2.24,-5 5,-5 2.76,0 5,2.24 5,5 z"
         id="path6042" />
    </marker>
    <marker
       inkscape:isstock="true"
       style="overflow:visible"
       id="marker5030"
       refX="0"
       refY="0"
       orient="auto"
       inkscape:stockid="DotM">
      <path
         transform="matrix(0.4,0,0,0.4,2.96,0.4)"
         style="fill:#000000;fill-opacity:1;fill-rule:evenodd;stroke:#000000;stroke-width:1pt;stroke-opacity:1"
         d="m -2.5,-1 c 0,2.76 -2.24,5 -5,5 -2.76,0 -5,-2.24 -5,-5 0,-2.76 2.24,-5 5,-5 2.76,0 5,2.24 5,5 z"
         id="path5032"
         inkscape:connector-curvature="0" />
    </marker>
    <marker
       inkscape:isstock="true"
       style="overflow:visible"
       id="marker4484"
       refX="0"
       refY="0"
       orient="auto"
       inkscape:stockid="DotM">
      <path
         transform="matrix(0.4,0,0,0.4,2.96,0.4)"
         style="fill:#000000;fill-opacity:1;fill-rule:evenodd;stroke:#000000;stroke-width:1pt;stroke-opacity:1"
         d="m -2.5,-1 c 0,2.76 -2.24,5 -5,5 -2.76,0 -5,-2.24 -5,-5 0,-2.76 2.24,-5 5,-5 2.76,0 5,2.24 5,5 z"
         id="path4486"
         inkscape:connector-curvature="0" />
    </marker>
    <marker
       inkscape:isstock="true"
       style="overflow:visible"
       id="marker4424"
       refX="0"
       refY="0"
       orient="auto"
       inkscape:stockid="DotL">
      <path
         transform="matrix(0.8,0,0,0.8,5.92,0.8)"
         style="fill:#000000;fill-opacity:1;fill-rule:evenodd;stroke:#000000;stroke-width:1pt;stroke-opacity:1"
         d="m -2.5,-1 c 0,2.76 -2.24,5 -5,5 -2.76,0 -5,-2.24 -5,-5 0,-2.76 2.24,-5 5,-5 2.76,0 5,2.24 5,5 z"
         id="path4426"
         inkscape:connector-curvature="0" />
    </marker>
  </defs>
  <sodipodi:namedview
     id="base"
     pagecolor="#ffffff"
     bordercolor="#666666"
     borderopacity="1.0"
     inkscape:pageopacity="0.0"
     inkscape:pageshadow="2"
     inkscape:zoom="2.8284271"
     inkscape:cx="235.5411"
     inkscape:cy="121.9782"
     inkscape:document-units="px"
     inkscape:current-layer="layer1"
     showgrid="false"
     units="cm"
     inkscape:window-width="1920"
     inkscape:window-height="1017"
     inkscape:window-x="0"
     inkscape:window-y="30"
     inkscape:window-maximized="1"
     inkscape:snap-object-midpoints="true"
     inkscape:object-nodes="true" />
  <metadata
     id="metadata7">
    <rdf:RDF>
      <cc:Work
         rdf:about="">
        <dc:format>image/svg+xml</dc:format>
        <dc:type
           rdf:resource="http://purl.org/dc/dcmitype/StillImage" />
        <dc:title></dc:title>
      </cc:Work>
    </rdf:RDF>
  </metadata>
  <g
     inkscape:label="Layer 1"
     inkscape:groupmode="layer"
     id="layer1"
     transform="translate(0,-928.3465)">
    <path
       inkscape:connector-curvature="0"
       style="fill:none;fill-rule:evenodd;stroke:#000000;stroke-width:0.89999998;stroke-linecap:butt;stroke-linejoin:miter;stroke-miterlimit:4;stroke-dasharray:none;stroke-opacity:1"
       d="m 10.171264,988.86895 35.432556,18.80595 36.7857,-57.49997 z"
       id="path6030"
       sodipodi:nodetypes="cccc" />
    <path
       inkscape:connector-curvature="0"
       style="fill:none;fill-rule:evenodd;stroke:#000000;stroke-width:0.89999998;stroke-linecap:butt;stroke-linejoin:miter;stroke-miterlimit:4;stroke-dasharray:none;stroke-opacity:1"
       d="M 124.09984,986.36889 82.38952,950.17493 55.36741,1042.5339 Z"
       id="path6456"
       sodipodi:nodetypes="cccc" />
    <circle
       style="fill:#000000;fill-opacity:1;stroke:none;stroke-width:0.89999992;stroke-miterlimit:4;stroke-dasharray:none;stroke-dashoffset:0;stroke-opacity:1"
       id="path4311"
       cx="124.09985"
       cy="986.3689"
       r="1.6759843" />
    <use
       x="0"
       y="0"
       xlink:href="#path4311"
       id="use4313"
       transform="translate(-113.92859,2.5000535)"
       width="100%"
       height="100%" />
    <use
       height="100%"
       width="100%"
       transform="translate(-68.732435,56.164938)"
       id="use4315"
       xlink:href="#path4311"
       y="0"
       x="0" />
    <use
       x="0"
       y="0"
       xlink:href="#path4311"
       id="use4317"
       transform="translate(-41.71032,-36.19401)"
       width="100%"
       height="100%" />
    <use
       height="100%"
       width="100%"
       transform="translate(-78.496033,21.306004)"
       id="use4319"
       xlink:href="#path4311"
       y="0"
       x="0" />
    <path
       inkscape:connector-curvature="0"
       style="fill:none;fill-rule:evenodd;stroke:#000000;stroke-width:0.89999998;stroke-linecap:butt;stroke-linejoin:miter;stroke-miterlimit:4;stroke-dasharray:none;stroke-opacity:1"
       d="m 187.83271,951.78208 -16.30781,89.14462 88.01812,-39.7363 z"
       id="path4303"
       sodipodi:nodetypes="cccc" />
    <use
       x="0"
       y="0"
       xlink:href="#path4311"
       id="use4321"
       transform="translate(47.425046,54.557804)"
       width="100%"
       height="100%" />
    <path
       style="fill:none;fill-rule:evenodd;stroke:#000000;stroke-width:1px;stroke-linecap:butt;stroke-linejoin:miter;stroke-opacity:1"
       d="m 153.9471,986.30314 88.57142,15.35716 -29.28571,37.4999 z"
       id="path4329"
       inkscape:connector-curvature="0"
       sodipodi:nodetypes="cccc" />
    <use
       height="100%"
       width="100%"
       transform="translate(29.847246,-0.0657565)"
       id="use4331"
       xlink:href="#path4311"
       y="0"
       x="0" />
    <use
       x="0"
       y="0"
       xlink:href="#path4311"
       id="use4333"
       transform="translate(63.73286,-34.586816)"
       width="100%"
       height="100%" />
    <use
       height="100%"
       width="100%"
       transform="translate(135.44317,14.821484)"
       id="use4335"
       xlink:href="#path4311"
       y="0"
       x="0" />
    <use
       x="0"
       y="0"
       xlink:href="#path4311"
       id="use4337"
       transform="translate(118.41867,15.291424)"
       width="100%"
       height="100%" />
    <use
       height="100%"
       width="100%"
       transform="translate(89.13296,52.791304)"
       id="use4339"
       xlink:href="#path4311"
       y="0"
       x="0" />
    <path
       sodipodi:nodetypes="cccc"
       id="path4480"
       d="m 317.90414,951.42494 -16.30781,89.14466 88.01812,-39.7364 z"
       style="fill:none;fill-rule:evenodd;stroke:#000000;stroke-width:0.89999998;stroke-linecap:butt;stroke-linejoin:miter;stroke-miterlimit:4;stroke-dasharray:none;stroke-opacity:1"
       inkscape:connector-curvature="0" />
    <use
       height="100%"
       width="100%"
       transform="translate(177.49647,54.200661)"
       id="use4482"
       xlink:href="#path4311"
       y="0"
       x="0" />
    <path
       sodipodi:nodetypes="cccc"
       inkscape:connector-curvature="0"
       id="path4484"
       d="m 347.26853,978.446 -0.17858,37.1072 -31.78571,5.4999 z"
       style="fill:none;fill-rule:evenodd;stroke:#000000;stroke-width:1px;stroke-linecap:butt;stroke-linejoin:miter;stroke-opacity:1" />
    <use
       x="0"
       y="0"
       xlink:href="#path4311"
       id="use4486"
       transform="translate(191.20439,34.684204)"
       width="100%"
       height="100%" />
    <use
       height="100%"
       width="100%"
       transform="translate(193.80429,-34.943959)"
       id="use4488"
       xlink:href="#path4311"
       y="0"
       x="0" />
    <use
       x="0"
       y="0"
       xlink:href="#path4311"
       id="use4490"
       transform="translate(265.5146,14.464341)"
       width="100%"
       height="100%" />
    <use
       height="100%"
       width="100%"
       transform="translate(223.16868,-7.9228965)"
       id="use4492"
       xlink:href="#path4311"
       y="0"
       x="0" />
    <use
       x="0"
       y="0"
       xlink:href="#path4311"
       id="use4494"
       transform="translate(222.9901,29.184304)"
       width="100%"
       height="100%" />
    <path
       inkscape:connector-curvature="0"
       id="path4500"
       d="m 377.24147,951.58913 8.48528,-5.3033 3.53554,8.83883 8.83883,-4.59619 2.65165,7.77817 -9.36917,2.82843 3.71231,6.36395 -8.13172,3.18199 -2.12132,-6.54074 -5.12653,4.06586 -5.12653,-7.42462 7.77818,-2.12131 z"
       style="fill:#e1150e;fill-opacity:1;fill-rule:evenodd;stroke:#a00000;stroke-width:1px;stroke-linecap:butt;stroke-linejoin:miter;stroke-opacity:1"
       sodipodi:nodetypes="ccccccccccccc" />
    <path
       style="fill:#00bf0e;fill-opacity:1;fill-rule:evenodd;stroke:#007400;stroke-width:1px;stroke-linecap:butt;stroke-linejoin:miter;stroke-opacity:1"
       d="m 134.61545,938.0657 c -7.86656,4.86136 -13.6118,15.29119 -13.6118,15.29119 l -8.13173,-8.22012 -3.62392,7.51301 13.43503,7.15946 c 0.0287,-0.11483 3.65531,-12.85346 17.94283,-17.50089 z"
       id="path4502"
       inkscape:connector-curvature="0"
       sodipodi:nodetypes="ccccccc" />
    <path
       sodipodi:nodetypes="ccccccc"
       inkscape:connector-curvature="0"
       id="path4504"
       d="m 255.72124,942.29606 c -9.6733,5.74129 -15.21642,17.53702 -15.21642,17.53702 -2.33484,-3.46758 -3.5383,-4.72642 -8.58641,-7.93342 l -2.9346,6.57639 c 9.06665,2.64447 8.19196,4.34946 12.28184,6.99392 0,0 5.21706,-13.77908 19.78133,-17.537 z"
       style="fill:#00bf0e;fill-opacity:1;fill-rule:evenodd;stroke:#007400;stroke-width:1px;stroke-linecap:butt;stroke-linejoin:miter;stroke-opacity:1" />
  </g>
</svg>
